<svg width="20" height="20" viewBox="0 0 20 20" fill="none" xmlns="http://www.w3.org/2000/svg">
<path d="M10 0C4.47768 0 0 4.47768 0 10C0 15.5223 4.47768 20 10 20C15.5223 20 20 15.5223 20 10C20 4.47768 15.5223 0 10 0ZM13.7277 14.1429C12.8214 14.9777 11.5848 15.4688 10.1094 15.4688C7.97322 15.4688 6.125 14.2433 5.22545 12.4576C4.85491 11.7188 4.64286 10.8839 4.64286 10C4.64286 9.11607 4.85491 8.28125 5.22545 7.54241C6.125 5.75446 7.97322 4.52902 10.1094 4.52902C11.5826 4.52902 12.8192 5.07143 13.7679 5.95313L12.2009 7.52232C11.6339 6.97991 10.9129 6.70536 10.1116 6.70536C8.6875 6.70536 7.48214 7.66741 7.05134 8.95982C6.94196 9.28795 6.87946 9.63839 6.87946 10C6.87946 10.3616 6.94196 10.7121 7.05134 11.0402C7.48214 12.3326 8.6875 13.2946 10.1094 13.2946C10.846 13.2946 11.471 13.1004 11.9598 12.7723C12.5402 12.3839 12.9241 11.8058 13.0513 11.1205H10.1094V9.00446H15.2589C15.3237 9.36384 15.3571 9.73661 15.3571 10.1228C15.3571 11.7902 14.7612 13.1897 13.7277 14.1429Z" fill="#6B7280"/>
</svg>
