<svg width="630" height="255" viewBox="0 0 630 255" fill="none" xmlns="http://www.w3.org/2000/svg">
<path d="M146.661 253.75C138.028 253.75 131.378 251.417 126.711 246.75C122.044 242.083 119.711 235.317 119.711 226.45V206.5H41.3109C32.6776 206.5 25.7943 204.633 20.6609 200.9C15.5276 196.933 12.9609 190.983 12.9609 183.05C12.9609 178.383 14.0109 173.717 16.1109 169.05C18.2109 164.15 21.9443 157.967 27.3109 150.5L117.961 18.55C121.928 12.4833 126.244 8.05 130.911 5.25C135.811 2.21666 141.528 0.699991 148.061 0.699991C155.761 0.699991 161.828 3.03333 166.261 7.70001C170.694 12.1333 172.911 18.9 172.911 28V163.8H185.861C201.494 163.8 209.311 170.917 209.311 185.15C209.311 199.383 201.494 206.5 185.861 206.5H172.911V226.45C172.911 235.317 170.578 242.083 165.911 246.75C161.478 251.417 155.061 253.75 146.661 253.75ZM119.711 163.8V82.25L64.4109 163.8H119.711Z" fill="url(#paint0_linear_289_3789)" fill-opacity="0.22"/>
<path d="M318.024 254.45C288.158 254.45 265.291 243.367 249.424 221.2C233.791 199.033 225.974 167.417 225.974 126.35C225.974 85.2833 233.791 54.0167 249.424 32.55C265.291 10.85 288.158 0 318.024 0C347.891 0 370.641 10.85 386.274 32.55C402.141 54.0167 410.074 85.2833 410.074 126.35C410.074 167.417 402.141 199.033 386.274 221.2C370.641 243.367 347.891 254.45 318.024 254.45ZM318.024 210.35C331.558 210.35 341.591 203.7 348.124 190.4C354.658 176.867 357.924 155.517 357.924 126.35C357.924 97.1833 354.658 76.1833 348.124 63.35C341.591 50.5167 331.558 44.1 318.024 44.1C304.491 44.1 294.458 50.5167 287.924 63.35C281.391 76.1833 278.124 97.1833 278.124 126.35C278.124 155.517 281.391 176.867 287.924 190.4C294.458 203.7 304.491 210.35 318.024 210.35Z" fill="url(#paint1_linear_289_3789)" fill-opacity="0.22"/>
<path d="M566.388 253.75C557.754 253.75 551.104 251.417 546.438 246.75C541.771 242.083 539.438 235.317 539.438 226.45V206.5H461.038C452.404 206.5 445.521 204.633 440.388 200.9C435.254 196.933 432.688 190.983 432.688 183.05C432.688 178.383 433.737 173.717 435.837 169.05C437.938 164.15 441.671 157.967 447.038 150.5L537.688 18.55C541.654 12.4833 545.971 8.05 550.638 5.25C555.538 2.21666 561.254 0.699991 567.788 0.699991C575.488 0.699991 581.554 3.03333 585.987 7.70001C590.421 12.1333 592.638 18.9 592.638 28V163.8H605.588C621.221 163.8 629.038 170.917 629.038 185.15C629.038 199.383 621.221 206.5 605.588 206.5H592.638V226.45C592.638 235.317 590.304 242.083 585.638 246.75C581.204 251.417 574.788 253.75 566.388 253.75ZM539.438 163.8V82.25L484.138 163.8H539.438Z" fill="url(#paint2_linear_289_3789)" fill-opacity="0.22"/>
<path d="M134.661 253.75C126.028 253.75 119.378 251.417 114.711 246.75C110.044 242.083 107.711 235.317 107.711 226.45V206.5H29.3109C20.6776 206.5 13.7943 204.633 8.66094 200.9C3.5276 196.933 0.960938 190.983 0.960938 183.05C0.960938 178.383 2.01094 173.717 4.11094 169.05C6.21094 164.15 9.94427 157.967 15.3109 150.5L105.961 18.55C109.928 12.4833 114.244 8.05 118.911 5.25C123.811 2.21666 129.528 0.699991 136.061 0.699991C143.761 0.699991 149.828 3.03333 154.261 7.70001C158.694 12.1333 160.911 18.9 160.911 28V163.8H173.861C189.494 163.8 197.311 170.917 197.311 185.15C197.311 199.383 189.494 206.5 173.861 206.5H160.911V226.45C160.911 235.317 158.578 242.083 153.911 246.75C149.478 251.417 143.061 253.75 134.661 253.75ZM107.711 163.8V82.25L52.4109 163.8H107.711Z" fill="url(#paint3_linear_289_3789)"/>
<path d="M306.024 254.45C276.158 254.45 253.291 243.367 237.424 221.2C221.791 199.033 213.974 167.417 213.974 126.35C213.974 85.2833 221.791 54.0167 237.424 32.55C253.291 10.85 276.158 0 306.024 0C335.891 0 358.641 10.85 374.274 32.55C390.141 54.0167 398.074 85.2833 398.074 126.35C398.074 167.417 390.141 199.033 374.274 221.2C358.641 243.367 335.891 254.45 306.024 254.45ZM306.024 210.35C319.558 210.35 329.591 203.7 336.124 190.4C342.658 176.867 345.924 155.517 345.924 126.35C345.924 97.1833 342.658 76.1833 336.124 63.35C329.591 50.5167 319.558 44.1 306.024 44.1C292.491 44.1 282.458 50.5167 275.924 63.35C269.391 76.1833 266.124 97.1833 266.124 126.35C266.124 155.517 269.391 176.867 275.924 190.4C282.458 203.7 292.491 210.35 306.024 210.35Z" fill="url(#paint4_linear_289_3789)"/>
<path d="M554.388 253.75C545.754 253.75 539.104 251.417 534.438 246.75C529.771 242.083 527.438 235.317 527.438 226.45V206.5H449.038C440.404 206.5 433.521 204.633 428.388 200.9C423.254 196.933 420.688 190.983 420.688 183.05C420.688 178.383 421.737 173.717 423.837 169.05C425.938 164.15 429.671 157.967 435.038 150.5L525.688 18.55C529.654 12.4833 533.971 8.05 538.638 5.25C543.538 2.21666 549.254 0.699991 555.788 0.699991C563.488 0.699991 569.554 3.03333 573.987 7.70001C578.421 12.1333 580.638 18.9 580.638 28V163.8H593.588C609.221 163.8 617.038 170.917 617.038 185.15C617.038 199.383 609.221 206.5 593.588 206.5H580.638V226.45C580.638 235.317 578.304 242.083 573.638 246.75C569.204 251.417 562.788 253.75 554.388 253.75ZM527.438 163.8V82.25L472.138 163.8H527.438Z" fill="url(#paint5_linear_289_3789)"/>
<defs>
<linearGradient id="paint0_linear_289_3789" x1="102.074" y1="-142.904" x2="663.219" y2="50.2721" gradientUnits="userSpaceOnUse">
<stop stop-color="#33E2FF"/>
<stop offset="0.493549" stop-color="#6A93FF"/>
<stop offset="1" stop-color="#FD5FB2"/>
</linearGradient>
<linearGradient id="paint1_linear_289_3789" x1="102.074" y1="-142.904" x2="663.219" y2="50.2721" gradientUnits="userSpaceOnUse">
<stop stop-color="#33E2FF"/>
<stop offset="0.493549" stop-color="#6A93FF"/>
<stop offset="1" stop-color="#FD5FB2"/>
</linearGradient>
<linearGradient id="paint2_linear_289_3789" x1="102.074" y1="-142.904" x2="663.219" y2="50.2721" gradientUnits="userSpaceOnUse">
<stop stop-color="#33E2FF"/>
<stop offset="0.493549" stop-color="#6A93FF"/>
<stop offset="1" stop-color="#FD5FB2"/>
</linearGradient>
<linearGradient id="paint3_linear_289_3789" x1="56.393" y1="-30.3579" x2="509.208" y2="68.7222" gradientUnits="userSpaceOnUse">
<stop stop-color="#AEACFF"/>
<stop offset="0.503437" stop-color="#FFDC60"/>
<stop offset="1" stop-color="#CA87FF"/>
</linearGradient>
<linearGradient id="paint4_linear_289_3789" x1="56.393" y1="-30.3579" x2="509.208" y2="68.7222" gradientUnits="userSpaceOnUse">
<stop stop-color="#AEACFF"/>
<stop offset="0.503437" stop-color="#FFDC60"/>
<stop offset="1" stop-color="#CA87FF"/>
</linearGradient>
<linearGradient id="paint5_linear_289_3789" x1="56.393" y1="-30.3579" x2="509.208" y2="68.7222" gradientUnits="userSpaceOnUse">
<stop stop-color="#AEACFF"/>
<stop offset="0.503437" stop-color="#FFDC60"/>
<stop offset="1" stop-color="#CA87FF"/>
</linearGradient>
</defs>
</svg>
