<svg width="32" height="30" viewBox="0 0 32 30" fill="none" xmlns="http://www.w3.org/2000/svg">
<path d="M29.3633 0.230159C28.8364 0.0121622 28.2567 -0.0447423 27.6975 0.0666388C27.1383 0.17802 26.6246 0.452686 26.2215 0.855921C26.1926 0.884758 26.1652 0.913595 26.1393 0.943874L23.9765 3.43827C21.4286 1.94741 18.5298 1.16163 15.5777 1.16163C12.6257 1.16163 9.72688 1.94741 7.17898 3.43827L5.01621 0.943874C4.99025 0.913595 4.96286 0.884758 4.93402 0.855921C4.53144 0.448861 4.0168 0.170848 3.45566 0.0572931C2.89452 -0.0562613 2.31228 -0.000216485 1.78311 0.218289C1.25393 0.436794 0.801771 0.807869 0.484225 1.28425C0.166679 1.76063 -0.00188121 2.32074 1.58381e-05 2.89325V15.5815C1.58381e-05 23.5319 6.98577 30 15.572 30C24.1582 30 31.1439 23.5319 31.1439 15.5815V2.89325C31.1437 2.32304 30.9744 1.7657 30.6574 1.29169C30.3405 0.817674 29.8901 0.448267 29.3633 0.230159ZM27.6835 15.5815C27.6835 21.0923 23.1633 25.6644 17.3022 26.4257V24.3768L19.1031 22.5759C19.4281 22.2509 19.6107 21.81 19.6107 21.3504C19.6107 20.8907 19.4281 20.4498 19.1031 20.1248C18.778 19.7997 18.3372 19.6171 17.8775 19.6171C17.4178 19.6171 16.977 19.7997 16.6519 20.1248L15.572 21.2047L14.4891 20.1205C14.1641 19.7954 13.7233 19.6128 13.2636 19.6128C12.8039 19.6128 12.363 19.7954 12.038 20.1205C11.713 20.4455 11.5304 20.8863 11.5304 21.346C11.5304 21.8057 11.713 22.2466 12.038 22.5716L13.8418 24.3768V26.43C7.98065 25.6687 3.46045 21.0951 3.46045 15.5858V4.4418L5.5569 6.85401C5.84289 7.18292 6.24249 7.39177 6.6758 7.43882C7.10911 7.48587 7.54422 7.36764 7.89414 7.10778C8.83241 6.41414 9.86389 5.85641 10.9581 5.45109V8.66065C10.9581 9.11953 11.1404 9.55962 11.4648 9.8841C11.7893 10.2086 12.2294 10.3909 12.6883 10.3909C13.1472 10.3909 13.5873 10.2086 13.9117 9.8841C14.2362 9.55962 14.4185 9.11953 14.4185 8.66065V4.67394C14.803 4.64029 15.1875 4.62347 15.572 4.62347C15.9565 4.62347 16.341 4.64029 16.7255 4.67394V8.66065C16.7255 9.11953 16.9077 9.55962 17.2322 9.8841C17.5567 10.2086 17.9968 10.3909 18.4557 10.3909C18.9146 10.3909 19.3546 10.2086 19.6791 9.8841C20.0036 9.55962 20.1859 9.11953 20.1859 8.66065V5.45109C21.2799 5.85676 22.3113 6.41447 23.2498 7.10778C23.5997 7.36764 24.0348 7.48587 24.4682 7.43882C24.9015 7.39177 25.3011 7.18292 25.5871 6.85401L27.6835 4.4418V15.5815ZM11.5348 16.1583C11.5348 16.6145 11.3995 17.0606 11.146 17.4399C10.8925 17.8193 10.5322 18.115 10.1107 18.2896C9.68914 18.4642 9.22529 18.5099 8.77778 18.4209C8.33027 18.3319 7.91921 18.1122 7.59658 17.7895C7.27395 17.4669 7.05423 17.0558 6.96522 16.6083C6.8762 16.1608 6.92189 15.697 7.09649 15.2754C7.2711 14.8539 7.56679 14.4936 7.94617 14.2401C8.32555 13.9866 8.77157 13.8513 9.22784 13.8513C9.83969 13.8513 10.4265 14.0944 10.8591 14.527C11.2917 14.9596 11.5348 15.5464 11.5348 16.1583ZM24.2231 16.1583C24.2231 16.6145 24.0878 17.0606 23.8343 17.4399C23.5808 17.8193 23.2205 18.115 22.7989 18.2896C22.3774 18.4642 21.9135 18.5099 21.466 18.4209C21.0185 18.3319 20.6075 18.1122 20.2848 17.7895C19.9622 17.4669 19.7425 17.0558 19.6535 16.6083C19.5645 16.1608 19.6101 15.697 19.7848 15.2754C19.9594 14.8539 20.2551 14.4936 20.6344 14.2401C21.0138 13.9866 21.4598 13.8513 21.9161 13.8513C22.528 13.8513 23.1147 14.0944 23.5474 14.527C23.98 14.9596 24.2231 15.5464 24.2231 16.1583Z" fill="black"/>
</svg>
