<svg width="34" height="30" viewBox="0 0 34 30" fill="none" xmlns="http://www.w3.org/2000/svg">
<path d="M13.9926 16.7313C13.9926 17.1877 13.8573 17.6339 13.6037 18.0134C13.3501 18.3928 12.9897 18.6886 12.5681 18.8633C12.1464 19.0379 11.6825 19.0836 11.2348 18.9946C10.7872 18.9055 10.376 18.6858 10.0533 18.363C9.73057 18.0403 9.51079 17.6291 9.42176 17.1815C9.33272 16.7339 9.37842 16.2699 9.55307 15.8483C9.72773 15.4266 10.0235 15.0662 10.403 14.8126C10.7825 14.5591 11.2286 14.4237 11.685 14.4237C12.297 14.4237 12.884 14.6669 13.3167 15.0996C13.7495 15.5324 13.9926 16.1193 13.9926 16.7313ZM22.0692 14.4237C21.6128 14.4237 21.1666 14.5591 20.7872 14.8126C20.4077 15.0662 20.1119 15.4266 19.9372 15.8483C19.7626 16.2699 19.7169 16.7339 19.8059 17.1815C19.895 17.6291 20.1147 18.0403 20.4375 18.363C20.7602 18.6858 21.1714 18.9055 21.619 18.9946C22.0666 19.0836 22.5306 19.0379 22.9523 18.8633C23.3739 18.6886 23.7343 18.3928 23.9879 18.0134C24.2414 17.6339 24.3768 17.1877 24.3768 16.7313C24.3768 16.1193 24.1337 15.5324 23.7009 15.0996C23.2681 14.6669 22.6812 14.4237 22.0692 14.4237ZM31.9111 18.1995C31.5303 18.3737 31.1168 18.4646 30.6981 18.4664C30.5126 18.4658 30.3276 18.4469 30.1458 18.4101V23.6541C30.1439 25.3366 29.4747 26.9496 28.285 28.1392C27.0953 29.3289 25.4823 29.9981 23.7999 30H9.95432C8.27187 29.9981 6.65887 29.3289 5.4692 28.1392C4.27953 26.9496 3.61034 25.3366 3.60843 23.6541V18.4087C3.42574 18.4463 3.23968 18.4651 3.05316 18.4649C2.63551 18.4637 2.22294 18.3732 1.84312 18.1995C1.25031 17.939 0.7642 17.484 0.465218 16.9096C0.166236 16.3352 0.072302 15.676 0.198958 15.041L2.56713 2.34925C2.64006 1.96303 2.79115 1.59579 3.01114 1.27007C3.23112 0.944358 3.51535 0.667035 3.84637 0.455129C4.1774 0.243223 4.54825 0.101204 4.93614 0.0377903C5.32404 -0.0256235 5.7208 -0.0090945 6.10207 0.0863629L6.16986 0.105112L13.6695 2.30742H20.0933L27.593 0.105112L27.6608 0.0863629C28.0424 -0.00905813 28.4394 -0.0254308 28.8276 0.0382516C29.2157 0.101934 29.5867 0.244326 29.9178 0.456674C30.2489 0.669022 30.533 0.94684 30.7528 1.27305C30.9726 1.59926 31.1233 1.96697 31.1957 2.35357L33.5639 15.0453C33.6889 15.6807 33.5931 16.3397 33.2926 16.9133C32.992 17.4869 32.5046 17.9407 31.9111 18.1995ZM23.2576 4.98423L29.7131 13.3305L27.9016 3.61987L23.2576 4.98423ZM4.0411 13.3305L10.4966 4.98423L5.85257 3.61987L4.0411 13.3305ZM26.6844 23.6541V15.0699L19.489 5.77026H14.2652L7.06982 15.0699V23.6541C7.06982 24.4191 7.37372 25.1528 7.91467 25.6938C8.45562 26.2347 9.1893 26.5386 9.95432 26.5386H15.1464V25.529L13.3465 23.7277C13.0213 23.4025 12.8387 22.9616 12.8387 22.5018C12.8387 22.042 13.0213 21.601 13.3465 21.2758C13.6716 20.9507 14.1126 20.7681 14.5724 20.7681C15.0322 20.7681 15.4732 20.9507 15.7983 21.2758L16.8771 22.3561L17.9602 21.2715C18.2854 20.9464 18.7263 20.7637 19.1861 20.7637C19.6459 20.7637 20.0869 20.9464 20.412 21.2715C20.7372 21.5967 20.9198 22.0376 20.9198 22.4974C20.9198 22.9572 20.7372 23.3982 20.412 23.7233L18.6078 25.529V26.5386H23.7999C24.5649 26.5386 25.2986 26.2347 25.8395 25.6938C26.3805 25.1528 26.6844 24.4191 26.6844 23.6541Z" fill="black"/>
</svg>
