<svg width="186" height="180" viewBox="0 0 186 180" fill="none" xmlns="http://www.w3.org/2000/svg">
<circle cx="62.5332" cy="176.5" r="3.5" fill="#FFAF3D"/>
<circle cx="122.033" cy="171" r="1" fill="#FFAF3D"/>
<circle cx="10.0332" cy="133" r="5" fill="#FFAF3D"/>
<circle cx="95.5" cy="91" r="70.5" fill="#F6C400"/>
<circle cx="95.5" cy="91" r="70.5" fill="url(#paint0_linear_320_18761)" fill-opacity="0.2"/>
<circle cx="165.533" cy="160.5" r="2.5" fill="#FFAF3D"/>
<circle cx="170.533" cy="110.5" r="2.5" fill="#FFAF3D"/>
<circle cx="1.0332" cy="75" r="1" fill="#FFAF3D"/>
<path fill-rule="evenodd" clip-rule="evenodd" d="M85.177 66.4971H106.852C115.327 66.4971 121.002 72.4471 121.002 81.2971V101.725C121.002 110.55 115.327 116.497 106.852 116.497H85.177C76.702 116.497 71.002 110.55 71.002 101.725V81.2971C71.002 72.4471 76.702 66.4971 85.177 66.4971ZM95.9781 84.1505C94.8031 84.1505 93.8281 83.173 93.8281 81.9755C93.8281 80.7505 94.8031 79.7755 96.0281 79.7755C97.2281 79.7755 98.2031 80.7505 98.2031 81.9755C98.2031 83.173 97.2281 84.1505 95.9781 84.1505ZM98.1789 100.95C98.1789 102.15 97.2039 103.125 95.9789 103.125C94.7789 103.125 93.8039 102.15 93.8039 100.95V89.8997C93.8039 88.6972 94.7789 87.6997 95.9789 87.6997C97.2039 87.6997 98.1789 88.6972 98.1789 89.8997V100.95Z" fill="white"/>
<circle cx="178.467" cy="27.5" r="7.5" fill="#FFAF3D"/>
<circle cx="106.533" cy="4.5" r="2.5" fill="#FFAF3D"/>
<circle cx="20.0332" cy="10" r="10" fill="#FFAF3D"/>
<defs>
<linearGradient id="paint0_linear_320_18761" x1="75.0323" y1="20.5" x2="126.806" y2="25.6714" gradientUnits="userSpaceOnUse">
<stop stop-color="#F66700"/>
<stop offset="1" stop-color="#F8D561"/>
</linearGradient>
</defs>
</svg>
